<svg id="Capa_1" enable-background="new 0 0 512 512" height="512" viewBox="0 0 512 512" width="512" xmlns="http://www.w3.org/2000/svg"><g><g><path clip-rule="evenodd" d="m95.825 168.314 116.777 14.103 143.862-14.103c11.145 0 20.205-9.091 20.205-20.205 0-11.146-9.059-20.236-20.205-20.236h-12.702l-155.568-32.784 155.568-32.752h12.702c11.145 0 20.205-9.091 20.205-20.236s-9.059-20.205-20.205-20.205h-260.639c-40.347 0-73.223 32.876-73.223 73.194 0 19.458 7.721 37.982 21.481 51.743 13.761 13.76 32.284 21.481 51.742 21.481z" fill="#ffe07d" fill-rule="evenodd"/></g><g><path clip-rule="evenodd" d="m95.825 127.872h247.937c-10.398-21.98-10.336-43.835 0-65.535h-247.937c-18.026 0-32.782 14.757-32.782 32.752 0 8.748 3.456 16.968 9.62 23.163 6.195 6.164 14.414 9.62 23.162 9.62z" fill="#f9f7f8" fill-rule="evenodd"/></g><g><path clip-rule="evenodd" d="m343.762 62.337h-247.937c-18.026 0-32.782 14.757-32.782 32.752 0 5.012 1.152 9.838 3.269 14.228 5.323-10.959 16.562-18.587 29.513-18.587l240.278.031c.592-9.526 3.176-18.991 7.659-28.424z" fill="#dddaec" fill-rule="evenodd"/></g><g><path clip-rule="evenodd" d="m356.464 21.895h-96.261c5.791 12.391 10.025 25.996 12.453 40.442h71.106 12.702c11.145 0 20.205-9.091 20.205-20.236s-9.06-20.206-20.205-20.206z" fill="#ffd064" fill-rule="evenodd"/></g><g><path clip-rule="evenodd" d="m226.736 348.948 176.924-19.738c20.578 0 37.421-16.843 37.421-37.422v-43.026-43.026c0-20.579-16.842-37.422-37.421-37.422h-47.196-260.639-53.485c-10.865 0-19.738 8.873-19.738 19.738s8.873 19.738 19.738 19.738h18.586l340.68 40.971-340.68 40.971h-18.586c-10.865 0-19.738 8.873-19.738 19.738s8.873 19.738 19.738 19.738z" fill="#a7e9a6" fill-rule="evenodd"/></g><g><path clip-rule="evenodd" d="m60.926 289.733h330.717c5.479 0 9.962-4.483 9.962-9.963v-62.017c0-5.479-4.483-9.963-9.962-9.963h-330.717c6.507 13.636 9.776 27.273 9.744 40.971 0 13.606-3.238 27.273-9.744 40.972z" fill="#f9f7f8" fill-rule="evenodd"/></g><g><path clip-rule="evenodd" d="m391.643 207.79h-330.717c3.207 6.694 5.604 13.387 7.223 20.081h300.395c5.448 0 9.931 4.483 9.931 9.963v51.899h13.169c5.479 0 9.962-4.483 9.962-9.963v-62.017c-.001-5.479-4.484-9.963-9.963-9.963z" fill="#dddaec" fill-rule="evenodd"/></g><g><path clip-rule="evenodd" d="m343.762 127.872h-73.254c-3.456 14.633-8.873 28.238-15.846 40.442h101.802c11.145 0 20.205-9.091 20.205-20.205 0-11.146-9.059-20.236-20.205-20.236h-12.702z" fill="#ffd064" fill-rule="evenodd"/></g><g><path clip-rule="evenodd" d="m403.66 168.314h-47.196-30.136c6.475 11.986 11.457 25.28 14.632 39.477h50.683c5.479 0 9.962 4.483 9.962 9.963v62.017c0 5.479-4.483 9.963-9.962 9.963h-13.169-40.067c-4.203 14.383-10.305 27.708-17.994 39.477h83.247c20.578 0 37.421-16.843 37.421-37.422v-43.026-43.026c0-20.58-16.843-37.423-37.421-37.423z" fill="#7fdbae" fill-rule="evenodd"/></g><g><path clip-rule="evenodd" d="m42.34 329.209h-4.95c-20.579 0-37.39 16.843-37.39 37.422v43.026 43.026c0 20.579 16.843 37.422 37.39 37.422h454.872c8.219 0 15.317-5.106 18.275-12.298.934-2.304 1.463-4.826 1.463-7.441 0-2.646-.529-5.168-1.463-7.472-2.958-7.192-10.056-12.266-18.275-12.266h-18.586l-434.201-37.36 434.201-44.583h18.586c8.219 0 15.317-5.075 18.275-12.266.934-2.304 1.463-4.826 1.463-7.472 0-2.615-.529-5.137-1.463-7.441-2.958-7.192-10.056-12.298-18.275-12.298-149.964.001-299.958.001-449.922.001z" fill="#ffe07d" fill-rule="evenodd"/></g><g><path clip-rule="evenodd" d="m473.676 450.628h-81.317c-5.292 14.664-12.64 27.989-21.575 39.477h121.478c8.219 0 15.317-5.106 18.275-12.298.934-2.304 1.463-4.826 1.463-7.441 0-2.646-.529-5.168-1.463-7.472-2.958-7.192-10.056-12.266-18.275-12.266z" fill="#ffd064" fill-rule="evenodd"/></g><g><path clip-rule="evenodd" d="m492.262 329.209h-88.602-15.691c5.479 12.173 9.526 25.436 11.768 39.477h73.939 18.586c8.219 0 15.317-5.075 18.275-12.266.934-2.304 1.463-4.826 1.463-7.472 0-2.615-.529-5.137-1.463-7.441-2.958-7.192-10.056-12.298-18.275-12.298z" fill="#ffd064" fill-rule="evenodd"/></g><g><path clip-rule="evenodd" d="m463.932 409.657c-.031-13.699 3.238-27.366 9.744-40.971-228.417 0-278.01 0-424.238 0-5.479 0-9.962 4.483-9.962 9.963v62.017c0 5.479 4.483 9.963 9.962 9.963h424.238c-6.506-13.699-9.744-27.367-9.744-40.972z" fill="#f9f7f8" fill-rule="evenodd"/></g><g><path clip-rule="evenodd" d="m133.713 368.686h-84.275c-5.479 0-9.962 4.483-9.962 9.963v31.009c0-5.479 4.483-9.963 9.962-9.963h84.275 10.678 43.429 10.647 266.025c1.183-10.336 4.265-20.672 9.184-31.009h-275.177z" fill="#dddaec" fill-rule="evenodd"/></g><g><path clip-rule="evenodd" d="m133.713 402.061c-.374 4.732 1.463 6.258 5.448 2.615l26.929-25.685 26.929 25.685c3.985 3.643 5.853 2.117 5.448-2.615.031-51.089.031-102.21.062-153.299h-64.848c.001 51.089.032 102.209.032 153.299z" fill="#eb5468" fill-rule="evenodd"/></g><g><path clip-rule="evenodd" d="m198.53 248.762h-22.135c-.031 46.668-.031 93.337-.031 140.005l11.457 10.928 5.199 4.981c3.985 3.643 5.853 2.117 5.448-2.615v-2.366c.031-50.311.031-100.622.062-150.933z" fill="#e5384f" fill-rule="evenodd"/></g><g><path d="m260.327 256.488h-189.657c-4.267 0-7.726-3.459-7.726-7.726s3.459-7.726 7.726-7.726h189.657c4.268 0 7.726 3.459 7.726 7.726s-3.458 7.726-7.726 7.726z" fill="#dddaec"/></g></g></svg>