<svg id="Capa_1" enable-background="new 0 0 512 512" height="512" viewBox="0 0 512 512" width="512" xmlns="http://www.w3.org/2000/svg"><g><g><path d="m254.568 386.8c.842 4.244 6.333 5.521 8.906 2.043 8.801-11.897 28.918-30.296 69.198-30.382 59.546-.126 143.339-29.474 141.56-75.208s-62.395-95.528-189.661-82.778c-107.69 10.789-190.904-38.393-160.23-79.849 41.093-55.536 135.369 89.544 225.664 43.137 4.066-2.09 3.409-8.112-1.012-9.277-17.822-4.696-51.234-16.632-70.49-43.229-26.697-36.873-42.867-65.668-101.17-72.944-144.101-17.983-202.815 128.661-93.421 211.304 122.242 92.348 235.258-29.734 271.782 21.047 35.147 48.866-120.265 19.635-101.126 116.136z" fill="#dad2ff"/><path d="m86.851 231.755c.088-.079.176-.157.263-.236 7.309-6.541 7.732-17.755 1.021-24.908-10.026-10.687-17.369-22.423-21.605-34.649-5.46-15.78-5.7-32.03-.68-46.99 3.628-10.826 9.728-20.291 17.819-28.117 6.119-5.919 6.888-15.47 1.923-22.387l-.205-.285c-6.188-8.622-18.622-9.756-26.216-2.343-41.162 40.18-45.075 107.152 3.495 158.796 6.444 6.851 17.182 7.396 24.185 1.119z" fill="#eae9ff"/><path d="m55.43 177.327c6.051-3.749 9.1-10.815 7.897-17.831-2.013-11.739-1.182-23.482 2.523-34.523 1.51-4.505 3.447-8.773 5.779-12.786 3.992-6.872 2.989-15.541-2.64-21.152l-.248-.247c-7.985-7.959-21.387-6.317-27.098 3.404-12.461 21.21-17.149 46.267-12.751 71.539 2.108 12.118 15.778 18.263 26.235 11.784.101-.063.202-.126.303-.188z" fill="#fafaff"/><path d="m350.01 163.762c-90.3 46.41-184.58-98.67-225.67-43.14-3.53 4.77-5.55 9.65-6.2 14.52.16-1.05 4.99-56.54 59.6-46.4 44.12 8.2 74.68 44.7 113.35 36.39 19.04 17.08 43.54 25.57 57.9 29.35 4.42 1.17 5.08 7.19 1.02 9.28z" fill="#c3b9f9"/><circle cx="263.644" cy="139.291" fill="#eae9ff" r="7.288"/><g><g><g><path d="m216.774 408.035c-39.559-6.493-109.002-10.464-189.118-10.835-6.818-.032-12.371 5.491-12.371 12.309v41.247h252.184s-6.096-9.01-12.243-18.097c-8.892-13.143-22.792-22.054-38.452-24.624z" fill="#f1eee0"/><path d="m267.47 450.752h-105.83c27.87-.35 51.79-17.06 62.6-40.97 12.57 3.82 23.53 11.86 30.99 22.88 6.14 9.08 12.24 18.09 12.24 18.09z" fill="#e8e4d8"/><path d="m99.456 417.739h-84.171v10.631h84.171c2.936 0 5.315-2.38 5.315-5.315 0-2.936-2.38-5.316-5.315-5.316z" fill="#d8d4c9"/><path d="m119.422 423.055c0 2.936 2.38 5.315 5.315 5.315h42.846c2.936 0 5.315-2.38 5.315-5.315 0-2.936-2.38-5.315-5.315-5.315h-42.846c-2.935-.001-5.315 2.379-5.315 5.315z" fill="#d8d4c9"/><path d="m295.226 408.036c39.559-6.493 109.002-10.464 189.118-10.835 6.818-.032 12.371 5.491 12.371 12.309v41.247h-252.184s6.096-9.01 12.243-18.097c8.892-13.143 22.792-22.053 38.452-24.624z" fill="#f1eee0"/><path d="m496.71 409.512v41.25h-103.03c25.18-8.37 45.16-28.11 53.88-53.13 11.95-.23 24.23-.37 36.78-.43 6.82-.03 12.37 5.49 12.37 12.31z" fill="#e8e4d8"/><path d="m496.71 409.512v41.25h-55.32c25.75-4.75 46.05-25.03 50.83-50.76 2.74 2.26 4.49 5.68 4.49 9.51z" fill="#d8d4c9"/></g><path d="m498.104 470.255h-484.208c-7.674 0-13.896-6.222-13.896-13.896 0-7.675 6.222-13.896 13.896-13.896h484.207c7.675 0 13.896 6.222 13.896 13.896.001 7.674-6.221 13.896-13.895 13.896z" fill="#fe255f"/><path d="m199.183 442.462h-141.401c-7.675 0-13.896 6.222-13.896 13.896 0 7.675 6.222 13.896 13.896 13.896h141.401c7.675 0 13.896-6.222 13.896-13.896 0-7.674-6.221-13.896-13.896-13.896z" fill="#fc709b"/><path d="m144.029 442.462h-61.12c-7.675 0-13.896 6.222-13.896 13.896 0 7.675 6.222 13.896 13.896 13.896h61.12c7.675 0 13.896-6.222 13.896-13.896 0-7.674-6.221-13.896-13.896-13.896z" fill="#f7a6c1"/><path d="m263.286 475.2h-14.571c-5.523 0-10-4.477-10-10v-25.741c0-9.547 7.739-17.286 17.286-17.286 9.547 0 17.286 7.739 17.286 17.286v25.741c-.001 5.522-4.478 10-10.001 10z" fill="#fc709b"/></g><path d="m512 456.362c0 3.84-1.56 7.31-4.07 9.82-2.51 2.52-5.99 4.07-9.83 4.07h-168.92c28.34 0 54.23-10.49 74.01-27.79h94.91c7.68 0 13.9 6.22 13.9 13.9z" fill="#e01152"/><path d="m512 456.362c0 3.84-1.56 7.31-4.07 9.82-2.51 2.52-5.99 4.07-9.83 4.07h-108.92c28.34 0 54.23-10.49 74.01-27.79h34.91c7.68 0 13.9 6.22 13.9 13.9z" fill="#c40047"/><path d="m496.71 417.742v10.63h-180.77c-2.94 0-5.32-2.38-5.32-5.32 0-1.47.6-2.79 1.56-3.75s2.29-1.56 3.76-1.56z" fill="#d8d4c9"/><path d="m496.71 417.742v10.63h-67.89c3.13-3.3 6-6.86 8.57-10.63z" fill="#b5b1a4"/></g><g><g><g><g><path d="m362.69 118.87-9.962-3.089c-14.385-4.46-25.648-15.723-30.108-30.108l-3.089-9.962c-.301-.972-1.201-1.635-2.219-1.635-1.018 0-1.917.663-2.219 1.635l-3.089 9.962c-4.46 14.385-15.723 25.648-30.108 30.108l-9.962 3.089c-.972.301-1.635 1.201-1.635 2.219 0 1.018.663 1.917 1.635 2.219l9.962 3.089c14.385 4.46 25.648 15.723 30.108 30.108l3.089 9.962c.301.972 1.201 1.635 2.219 1.635 1.018 0 1.917-.663 2.219-1.635l3.089-9.962c4.46-14.385 15.723-25.648 30.108-30.108l9.962-3.089c.972-.301 1.635-1.201 1.635-2.219 0-1.018-.663-1.917-1.635-2.219z" fill="#ffe059"/><path d="m364.322 121.085c0 1.019-.661 1.919-1.637 2.222l-9.952 3.09c-14.387 4.456-25.651 15.72-30.107 30.107l-3.09 9.963c-.304.976-1.203 1.637-2.223 1.637-1.019 0-1.919-.661-2.222-1.637l-3.09-9.963c-1.507-4.879-3.805-9.399-6.754-13.422 15.666-2.786 27.548-16.479 27.548-32.936 0-2.743-.325-5.41-.954-7.968 5.486 6.288 12.674 11.058 20.891 13.606l9.952 3.09c.976.303 1.638 1.192 1.638 2.211z" fill="#ffc751"/></g><g><g><g><g><g><path d="m258.247 144.478c1.573-1.036 1.573-3.337 0-4.373-4.059-2.674-7.913-5.786-11.491-9.337s-6.714-7.375-9.408-11.404c-1.044-1.561-3.363-1.561-4.407 0-2.695 4.029-5.83 7.853-9.408 11.404s-7.432 6.662-11.491 9.337c-1.573 1.036-1.573 3.337 0 4.373 4.059 2.674 7.913 5.786 11.491 9.337s6.714 7.375 9.408 11.404c1.044 1.561 3.363 1.561 4.407 0 2.695-4.029 5.83-7.853 9.408-11.404 3.578-3.552 7.431-6.663 11.491-9.337z" fill="#ffe059"/></g></g><g><g><path d="m258.248 144.476c-4.059 2.674-7.912 5.785-11.491 9.337-3.58 3.553-6.714 7.376-9.409 11.404-1.045 1.558-3.36 1.558-4.405 0-2.695-4.028-5.829-7.851-9.409-11.404-.466-.462-.938-.918-1.417-1.367.632.053 1.271.079 1.916.079 12.283 0 22.298-9.68 22.71-21.771l.013.013c3.58 3.553 7.432 6.663 11.491 9.337 1.571 1.037 1.571 3.335.001 4.372z" fill="#ffc751"/></g></g></g></g></g><g><g><g><g><g><path d="m333.996 209.678c1.573-1.036 1.573-3.337 0-4.373-4.059-2.674-7.913-5.786-11.491-9.337s-6.714-7.375-9.408-11.404c-1.044-1.561-3.363-1.561-4.407 0-2.695 4.029-5.83 7.853-9.408 11.404s-7.432 6.662-11.491 9.337c-1.573 1.036-1.573 3.337 0 4.373 4.059 2.674 7.913 5.786 11.491 9.337s6.714 7.375 9.408 11.404c1.044 1.561 3.363 1.561 4.407 0 2.695-4.029 5.83-7.853 9.408-11.404 3.578-3.552 7.431-6.663 11.491-9.337z" fill="#ffe059"/></g></g><g><g><path d="m333.997 209.676c-4.059 2.674-7.912 5.785-11.491 9.337-3.58 3.553-6.714 7.376-9.409 11.404-1.045 1.558-3.36 1.558-4.405 0-2.695-4.028-5.829-7.851-9.409-11.404-.466-.462-.938-.918-1.417-1.367.632.053 1.271.079 1.916.079 12.283 0 22.298-9.68 22.71-21.771.007.007.007.007.013.013 3.58 3.553 7.432 6.663 11.491 9.337 1.571 1.037 1.571 3.335.001 4.372z" fill="#ffc751"/></g></g></g></g></g></g></g><g><path d="m416.279 74.49-7.318-2.269c-10.567-3.276-18.841-11.55-22.117-22.117l-2.269-7.318c-.221-.714-.882-1.201-1.63-1.201-.748 0-1.409.487-1.63 1.201l-2.269 7.318c-3.276 10.567-11.55 18.841-22.117 22.117l-7.318 2.269c-.714.221-1.201.882-1.201 1.63 0 .748.487 1.408 1.201 1.63l7.318 2.269c10.567 3.276 18.841 11.55 22.117 22.117l2.269 7.318c.221.714.882 1.201 1.63 1.201.748 0 1.408-.487 1.63-1.201l2.269-7.318c3.276-10.567 11.55-18.841 22.117-22.117l7.318-2.269c.714-.221 1.201-.882 1.201-1.63 0-.748-.487-1.408-1.201-1.63z" fill="#dad2ff"/><path d="m417.478 76.117c0 .749-.486 1.41-1.203 1.633l-7.311 2.27c-10.568 3.273-18.843 11.548-22.116 22.116l-2.27 7.319c-.223.717-.884 1.203-1.633 1.203s-1.41-.486-1.633-1.203l-2.27-7.319c-1.107-3.584-2.795-6.905-4.962-9.86 11.508-2.047 20.237-12.105 20.237-24.195 0-2.015-.239-3.974-.701-5.854 4.03 4.619 9.31 8.123 15.347 9.995l7.311 2.27c.718.224 1.204.877 1.204 1.625z" fill="#c3b9f9"/></g></g><path d="m401.101 189.712c16.389 6.68 60.908 27.363 81.756 62.186 2.228 3.721 7.955 1.774 7.492-2.538-2.074-19.285-9.554-47.384-34.528-62.039-23.824-13.981-44.871-7.873-54.835-3.325-2.485 1.133-2.414 4.685.115 5.716z" fill="#c3b9f9"/><path d="m28.262 210.25c12.6 22.459 36.505 52.114 80.397 72.352 6.222 2.869 3.576 12.271-3.232 11.496-23.167-2.638-51.158-9.751-66.373-28.009-13.171-15.806-19.281-35.292-22.026-51.853-1.112-6.698 7.912-9.907 11.234-3.986z" fill="#eae9ff"/><g><g><g><g><g><path d="m103.592 258.47c1.573-1.036 1.573-3.337 0-4.373-4.059-2.674-7.913-5.786-11.491-9.337s-6.714-7.375-9.408-11.404c-1.044-1.561-3.363-1.561-4.407 0-2.695 4.029-5.83 7.853-9.408 11.404s-7.432 6.662-11.491 9.337c-1.573 1.036-1.573 3.337 0 4.373 4.059 2.674 7.913 5.786 11.491 9.337s6.714 7.375 9.408 11.404c1.044 1.561 3.363 1.561 4.407 0 2.695-4.029 5.83-7.853 9.408-11.404s7.431-6.662 11.491-9.337z" fill="#ffe059"/></g></g><g><g><path d="m103.593 258.469c-4.059 2.674-7.912 5.785-11.491 9.337-3.58 3.553-6.714 7.376-9.409 11.404-1.045 1.558-3.36 1.558-4.405 0-2.695-4.028-5.829-7.851-9.409-11.404-.466-.462-.938-.918-1.417-1.367.632.053 1.271.079 1.916.079 12.283 0 22.298-9.68 22.71-21.771l.013.013c3.58 3.553 7.432 6.663 11.491 9.337 1.571 1.037 1.571 3.335.001 4.372z" fill="#ffc751"/></g></g></g></g></g><path d="m332.67 358.462c-40.28.09-60.39 18.48-69.2 30.38-2.57 3.48-8.06 2.2-8.9-2.04-15.1-76.15 78.48-74.01 101.36-93.74.01.01.01 0 .02-.01 20.36-12.34 33.93-28.29 33.2-46.98-.59-15.19-7.68-30.83-21.54-44.48h.01c70.84 10.77 105.27 47.36 106.61 81.66 1.78 45.74-82.01 75.08-141.56 75.21z" fill="#c3b9f9"/><path d="m332.67 358.462c-40.28.09-60.39 18.48-69.2 30.38-2.57 3.48-8.06 2.2-8.9-2.04-6.82-34.41 8.54-52.83 29.54-64.51 15.95 8.34 34.1 13.06 53.35 13.06 57.72 0 105.55-42.41 114.01-97.76 14.67 13.93 22.15 30.03 22.76 45.66 1.78 45.74-82.01 75.08-141.56 75.21z" fill="#ab97f2"/><path d="m92.027 121.355c2.423-4.998 10.004-2.82 9.453 2.706-1.344 13.488-.093 31.147 10.691 46.833 13.295 19.338 45.67 33.469 79.586 39.841 3.005.565 2.684 4.968-.372 5.052-28.306.778-74.835-3.532-94.989-37.116-14.373-23.949-10.907-43.83-4.369-57.316z" fill="#c3b9f9"/><path d="m139.334 225.755c27.571 5.972 76.998 12.385 140.525 2.56 3.106-.48 4.306 3.898 1.378 5.04-30.936 12.068-92.625 29.144-144.96.559-4.448-2.429-1.896-9.232 3.057-8.159z" fill="#ab97f2"/><circle cx="358.945" cy="247.485" fill="#eae9ff" r="7.288"/><circle cx="393.68" cy="317.552" fill="#eae9ff" r="7.288"/><circle cx="80.489" cy="201.592" fill="#fafaff" r="7.288"/><circle cx="229.473" cy="82.724" fill="#fafaff" r="7.288"/><circle cx="203.767" cy="79.341" fill="#ab97f2" r="6.221"/><circle cx="366.233" cy="312.568" fill="#dad2ff" r="7.288"/><circle cx="119.422" cy="219.509" fill="#c3b9f9" r="5.739"/><circle cx="431.428" cy="247.485" fill="#ab97f2" r="5.739"/></g><g><path d="m254.667 327.513-6.192-1.92c-8.941-2.772-15.942-9.773-18.714-18.714l-1.92-6.192c-.187-.604-.746-1.016-1.379-1.016-.633 0-1.192.412-1.379 1.016l-1.92 6.192c-2.772 8.941-9.773 15.942-18.714 18.714l-6.192 1.92c-.604.187-1.016.746-1.016 1.379 0 .633.412 1.192 1.016 1.379l6.192 1.92c8.941 2.772 15.942 9.773 18.714 18.714l1.92 6.192c.187.604.746 1.016 1.379 1.016.633 0 1.192-.412 1.379-1.016l1.92-6.192c2.772-8.941 9.773-15.942 18.714-18.714l6.192-1.92c.604-.187 1.016-.746 1.016-1.379.001-.632-.411-1.191-1.016-1.379z" fill="#dad2ff"/><path d="m255.682 328.89c0 .633-.411 1.193-1.018 1.381l-6.186 1.921c-8.942 2.77-15.944 9.771-18.713 18.713l-1.921 6.193c-.189.607-.748 1.018-1.381 1.018s-1.193-.411-1.381-1.018l-1.921-6.193c-.937-3.032-2.365-5.842-4.198-8.342 9.737-1.732 17.123-10.243 17.123-20.472 0-1.705-.202-3.363-.593-4.953 3.41 3.908 7.878 6.873 12.985 8.457l6.186 1.921c.607.188 1.018.741 1.018 1.374z" fill="#c3b9f9"/></g><g><path d="m338.818 361.473-6.192-1.92c-8.941-2.772-15.942-9.773-18.714-18.714l-1.92-6.192c-.187-.604-.746-1.016-1.379-1.016-.633 0-1.192.412-1.379 1.016l-1.92 6.192c-2.772 8.941-9.773 15.942-18.714 18.714l-6.192 1.92c-.604.187-1.016.746-1.016 1.379 0 .633.412 1.192 1.016 1.379l6.192 1.92c8.941 2.772 15.942 9.773 18.714 18.714l1.92 6.192c.187.604.746 1.016 1.379 1.016.633 0 1.192-.412 1.379-1.016l1.92-6.192c2.772-8.941 9.773-15.942 18.714-18.714l6.192-1.92c.604-.187 1.016-.746 1.016-1.379 0-.633-.412-1.192-1.016-1.379z" fill="#ffe059"/><path d="m339.832 362.85c0 .633-.411 1.193-1.018 1.381l-6.186 1.921c-8.942 2.77-15.944 9.771-18.713 18.713l-1.921 6.193c-.189.607-.748 1.018-1.381 1.018s-1.193-.411-1.381-1.018l-1.921-6.193c-.937-3.032-2.365-5.842-4.198-8.342 9.737-1.732 17.123-10.243 17.123-20.472 0-1.705-.202-3.363-.593-4.953 3.41 3.908 7.878 6.873 12.985 8.457l6.186 1.921c.607.188 1.018.74 1.018 1.374z" fill="#ffc751"/></g></g></svg>