<svg height="512" viewBox="0 0 60 60" width="512" xmlns="http://www.w3.org/2000/svg"><g id="Page-1" fill="none" fill-rule="evenodd"><g id="036---Disconnect" fill-rule="nonzero"><ellipse id="Oval" cx="21" cy="10" fill="#e8edfc" rx="20" ry="4"/><path id="Shape" d="m41 10v13c0 2.21-8.95 4-20 4s-20-1.79-20-4v-13c0 2.21 8.95 4 20 4s20-1.79 20-4z" fill="#a4c2f7"/><path id="Shape" d="m41 23v13c0 2.21-8.95 4-20 4s-20-1.79-20-4v-13c0 2.21 8.95 4 20 4s20-1.79 20-4z" fill="#e8edfc"/><path id="Shape" d="m41 36v14c0 2.21-8.95 4-20 4s-20-1.79-20-4v-14c0 2.21 8.95 4 20 4s20-1.79 20-4z" fill="#a4c2f7"/><path id="Shape" d="m51 1h2c.5522847 0 1 .44771525 1 1v11h-4v-11c0-.55228475.4477153-1 1-1z" fill="#a4c2f7"/><path id="Shape" d="m50 13h4c2.7614237 0 5 2.2385763 5 5v6c0 .5522847-.4477153 1-1 1h-12c-.5522847 0-1-.4477153-1-1v-6c0-2.7614237 2.2385763-5 5-5z" fill="#e8edfc"/><path id="Shape" d="m54 13h-3c2.7614237 0 5 2.2385763 5 5v6c0 .5522847-.4477153 1-1 1h3c.5522847 0 1-.4477153 1-1v-6c0-2.7614237-2.2385763-5-5-5z" fill="#cad9fc"/><path id="Shape" d="m50 47h4v11c0 .5522847-.4477153 1-1 1h-2c-.5522847 0-1-.4477153-1-1z" fill="#a4c2f7"/><path id="Shape" d="m46 35h12c.5522847 0 1 .4477153 1 1v6c0 2.7614237-2.2385763 5-5 5h-4c-2.7614237 0-5-2.2385763-5-5v-6c0-.5522847.4477153-1 1-1z" fill="#e8edfc"/><path id="Shape" d="m58 35h-3c.5522847 0 1 .4477153 1 1v6c0 2.7614237-2.2385763 5-5 5h3c2.7614237 0 5-2.2385763 5-5v-6c0-.2652165-.1053568-.5195704-.2928932-.7071068s-.4418903-.2928932-.7071068-.2928932z" fill="#cad9fc"/><path id="Shape" d="m4 50v-40c0-2.109 8.154-3.831 18.5-3.985-.5-.007-.994-.015-1.5-.015-11.05 0-20 1.79-20 4v40c0 2.21 8.95 4 20 4 .506 0 1-.008 1.5-.015-10.346-.154-18.5-1.876-18.5-3.985z" fill="#fff"/><path id="Shape" d="m13.1 7.329-.174-1.992c2.687-.237 5.381-.337 8.074-.337v2c-2.64 0-5.281.1-7.9.329z" fill="#fff"/><g fill="#428dff"><circle id="Oval" cx="5" cy="16" r="1"/><circle id="Oval" cx="5" cy="29" r="1"/><circle id="Oval" cx="5" cy="42" r="1"/><path id="Shape" d="m17.021 7.08c-.5522847.00276142-1.0022386-.44271525-1.005-.995s.4427153-1.00223858.995-1.005h.01c.5522847 0 1 .44771525 1 1s-.4477153 1-1 1z"/><path id="Shape" d="m21 5c-.5522847 0-1 .44771525-1 1s.4477153 1 1 1c11.837 0 18.565 1.954 19.007 2.952-.442 1.094-7.17 3.048-19.007 3.048-11.768 0-18.481-1.931-18.986-2.981.0164011-.02590105.03624979-.04945034.059-.07.12358948-.12844639.26463905-.23886229.419-.328.40902508-.24031706.83996223-.44122016 1.287-.6.97965462-.34141159 1.98213373-.61341759 3-.814 2.08818072-.41505719 4.1987498-.70821961 6.321-.878.3613158-.02415564.681342-.2417586.8366519-.56888464.15531-.32712604.1216341-.71265646-.0880396-1.00790139-.2096737-.29524494-.5625803-.45406763-.9226123-.41521397-2.2012728.17770995-4.39031763.48356185-6.556.916-1.11129771.22075851-2.20567093.51949733-3.275.894-.57602403.2039495-1.13067474.46385829-1.656.776-.31309469.1866055-.59796489.41692608-.846.684-.36613532.37302119-.5779257.87053216-.593 1.393v40c0 4.943 20.143 5 21 5s21-.057 21-5v-40c0-4.943-20.143-5-21-5zm19 44.962c-.474 1.095-7.195 3.038-19 3.038-11.837 0-18.565-1.954-19-3v-11.638c5.109 2.599 18.309 2.638 19 2.638s13.891-.039 19-2.638zm0-14c-.474 1.095-7.195 3.038-19 3.038-11.837 0-18.565-1.954-19-3v-10.638c5.109 2.599 18.309 2.638 19 2.638s13.891-.039 19-2.638zm0-13c-.474 1.095-7.195 3.038-19 3.038-11.837 0-18.565-1.954-19-3v-10.638c5.109 2.599 18.309 2.638 19 2.638s13.891-.039 19-2.638z"/><path id="Shape" d="m28.971 23.231h.086c2.7588093-.2040887 5.4972698-.6250559 8.19-1.259.5323481-.1388062.8525954-.6815504.716707-1.2146508-.1358883-.5331004-.6768703-.8563156-1.210707-.7233492-2.5864278.605899-5.216561 1.0071397-7.866 1.2-.5522847.023196-.981196.4897153-.958 1.042s.4897153.981196 1.042.958z"/><path id="Shape" d="m28.971 36.231h.086c2.7588093-.2040887 5.4972698-.6250559 8.19-1.259.5323481-.1388062.8525954-.6815504.716707-1.2146508-.1358883-.5331004-.6768703-.8563156-1.210707-.7233492-2.5864278.605899-5.216561 1.0071397-7.866 1.2-.5522847.023196-.981196.4897153-.958 1.042s.4897153.981196 1.042.958z"/><path id="Shape" d="m28.971 49.231h.086c2.7588093-.2040887 5.4972698-.6250559 8.19-1.259.5323481-.1388062.8525954-.6815504.716707-1.2146508-.1358883-.5331004-.6768703-.8563156-1.210707-.7233492-2.5864278.605899-5.216561 1.0071397-7.866 1.2-.5522847.023196-.9811959.4897153-.9579999 1.042.0231959.5522847.4897152.9811959 1.0419999.958z"/><path id="Shape" d="m5 19c-.55228475 0-1 .4477153-1 1v2c0 .5522847.44771525 1 1 1s1-.4477153 1-1v-2c0-.5522847-.44771525-1-1-1z"/><path id="Shape" d="m5 32c-.55228475 0-1 .4477153-1 1v2c0 .5522847.44771525 1 1 1s1-.4477153 1-1v-2c0-.5522847-.44771525-1-1-1z"/><path id="Shape" d="m5 45c-.55228475 0-1 .4477153-1 1v2c0 .5522847.44771525 1 1 1s1-.4477153 1-1v-2c0-.5522847-.44771525-1-1-1z"/><path id="Shape" d="m55 12.09v-10.09c0-1.1045695-.8954305-2-2-2h-2c-1.1045695 0-2 .8954305-2 2v10.09c-2.8833034.4898665-4.9945704 2.9853841-5 5.91v6c0 1.1045695.8954305 2 2 2h2v4c0 .5522847.4477153 1 1 1s1-.4477153 1-1v-4h4v4c0 .5522847.4477153 1 1 1s1-.4477153 1-1v-4h2c1.1045695 0 2-.8954305 2-2v-6c-.0054296-2.9246159-2.1166966-5.4201335-5-5.91zm-4-10.09h2v10h-2zm-5 22v-2h2c.5522847 0 1-.4477153 1-1s-.4477153-1-1-1h-2v-2c0-2.209139 1.790861-4 4-4h4c2.209139 0 4 1.790861 4 4v2h-6c-.5522847 0-1 .4477153-1 1s.4477153 1 1 1h6v2z"/><path id="Shape" d="m58 34h-12c-1.1045695 0-2 .8954305-2 2v6c.0054296 2.9246159 2.1166966 5.4201335 5 5.91v10.09c0 1.1045695.8954305 2 2 2h2c1.1045695 0 2-.8954305 2-2v-10.09c2.8833034-.4898665 4.9945704-2.9853841 5-5.91v-6c0-1.1045695-.8954305-2-2-2zm-5 24h-2v-10h2zm5-20h-2c-.5522847 0-1 .4477153-1 1s.4477153 1 1 1h2v2c0 2.209139-1.790861 4-4 4h-4c-2.209139 0-4-1.790861-4-4v-2h6c.5522847 0 1-.4477153 1-1s-.4477153-1-1-1h-6v-2h12z"/></g></g></g></svg>